<?xml version="1.0" encoding="UTF-8"?>
<svg id="Ombrage" xmlns="http://www.w3.org/2000/svg" viewBox="0 0 174.25 175.59">
  <defs>
    <style>
      .cls-1 {
        fill: #587DFF;
      }

      .cls-2 {
        fill: #67DCFF;
      }

      .cls-3 {
        fill: #2720FF;
      }
    </style>
  </defs>
  <path class="cls-2" d="M153.25,61.41h-40.4V22.59C110.93,9.96,100.31.48,87.91.02c-13.1-.49-24.87,9.21-26.93,22.57.08,13.06.17,26.12.25,39.17,7.18.05,14.37.09,21.55.14,2.37.03,11.95.41,20.2,7.92,9.01,8.2,9.79,18.87,9.9,20.99.05,7.67.1,15.34.15,23.01,13.41.09,26.82.17,40.23.26,12.18-2.82,20.9-13.7,20.99-26.14.09-12.59-8.67-23.68-20.99-26.54Z"/>
  <path class="cls-1" d="M71.27,105.76c-9.01-8.2-9.79-18.87-9.9-20.99-.05-7.67-.1-15.34-.15-23.01-13.41-.09-26.82-.17-40.23-.26C8.81,64.33.09,75.2,0,87.65c-.09,12.59,8.67,23.68,20.99,26.54h40.4c0,12.94,0,25.88,0,38.81,1.93,12.63,12.55,22.11,24.95,22.57,13.1.49,24.87-9.21,26.93-22.57-.08-13.06-.17-26.12-.25-39.17-7.18-.05-14.37-.09-21.55-.14-2.37-.03-11.95-.41-20.2-7.92Z"/>
  <path class="cls-3" d="M102.97,69.82c-8.24-7.51-17.83-7.89-20.2-7.92-7.18-.05-14.37-.09-21.55-.14.05,7.67.1,15.34.15,23.01.11,2.12.89,12.79,9.9,20.99,8.24,7.51,17.83,7.89,20.2,7.92,7.18.05,14.37.09,21.55.14-.05-7.67-.1-15.34-.15-23.01-.11-2.12-.89-12.79-9.9-20.99Z"/>
</svg>